<svg width="468" height="102" viewBox="0 0 468 102" fill="none" xmlns="http://www.w3.org/2000/svg">
<path d="M129.188 21.2812V35.6562H137.312C139.688 35.6562 141.531 35.0208 142.844 33.75C144.177 32.4792 144.844 30.7188 144.844 28.4688C144.844 26.2812 144.156 24.5417 142.781 23.25C141.406 21.9375 139.552 21.2812 137.219 21.2812H129.188ZM129.188 42.5V59H119.75V13.9062H138.219C143.365 13.9062 147.365 15.1875 150.219 17.75C153.094 20.2917 154.531 23.8021 154.531 28.2812C154.531 31.2188 153.802 33.8438 152.344 36.1562C150.906 38.4479 148.906 40.0938 146.344 41.0938L155.844 59H145.156L136.75 42.5H129.188ZM187.156 55.0938C184.177 58.1771 180.135 59.7188 175.031 59.7188C169.927 59.7188 165.885 58.1667 162.906 55.0625C159.927 51.9583 158.438 47.6771 158.438 42.2188C158.438 36.8229 159.938 32.5729 162.938 29.4688C165.958 26.3438 169.99 24.7812 175.031 24.7812C180.094 24.7812 184.125 26.3438 187.125 29.4688C190.125 32.5729 191.625 36.8229 191.625 42.2188C191.625 47.6979 190.135 51.9896 187.156 55.0938ZM175.031 52.75C177.281 52.75 179.062 51.8333 180.375 50C181.688 48.1667 182.344 45.5833 182.344 42.25C182.344 38.9583 181.688 36.3854 180.375 34.5312C179.062 32.6771 177.281 31.75 175.031 31.75C172.781 31.75 170.99 32.6771 169.656 34.5312C168.344 36.3854 167.688 38.9583 167.688 42.25C167.688 45.5833 168.344 48.1667 169.656 50C170.969 51.8333 172.76 52.75 175.031 52.75ZM227.281 25.5V59H218.469V52.9688H218.281C216.531 57.4062 213.188 59.625 208.25 59.625C204.583 59.625 201.656 58.5104 199.469 56.2812C197.281 54.0312 196.188 50.9688 196.188 47.0938V25.5H205.312V45.1875C205.312 47.4167 205.844 49.1146 206.906 50.2812C207.99 51.4479 209.542 52.0312 211.562 52.0312C213.583 52.0312 215.188 51.3646 216.375 50.0312C217.562 48.6979 218.156 46.9167 218.156 44.6875V25.5H227.281ZM233.219 59V25.5H242.031V31.4688H242.219C243.135 29.3438 244.469 27.7188 246.219 26.5938C247.99 25.4479 250.146 24.875 252.688 24.875C256.396 24.875 259.26 25.9792 261.281 28.1875C263.302 30.3958 264.312 33.4688 264.312 37.4062V59H255.188V39.3125C255.188 37.1042 254.667 35.4062 253.625 34.2188C252.583 33.0312 251.052 32.4375 249.031 32.4375C247.01 32.4375 245.385 33.1146 244.156 34.4688C242.948 35.8229 242.344 37.5938 242.344 39.7812V59H233.219ZM282.531 59.5312C278.344 59.5312 275.021 57.9792 272.562 54.875C270.104 51.7708 268.875 47.5417 268.875 42.1875C268.875 36.875 270.104 32.6771 272.562 29.5938C275.042 26.5104 278.385 24.9688 282.594 24.9688C284.969 24.9688 287.052 25.5417 288.844 26.6875C290.656 27.8333 291.979 29.3542 292.812 31.25H293V13.9062H302.125V59H293.125V53.25H292.969C292.135 55.1458 290.792 56.6667 288.938 57.8125C287.083 58.9583 284.948 59.5312 282.531 59.5312ZM285.625 32.2812C283.333 32.2812 281.521 33.1771 280.188 34.9688C278.875 36.7604 278.219 39.1875 278.219 42.25C278.219 45.3333 278.875 47.7604 280.188 49.5312C281.521 51.3021 283.333 52.1875 285.625 52.1875C287.896 52.1875 289.698 51.3021 291.031 49.5312C292.385 47.7396 293.062 45.3125 293.062 42.25C293.062 39.2083 292.385 36.7917 291.031 35C289.698 33.1875 287.896 32.2812 285.625 32.2812ZM331.125 21.2812V35.6562H339.25C341.625 35.6562 343.469 35.0208 344.781 33.75C346.115 32.4792 346.781 30.7188 346.781 28.4688C346.781 26.2812 346.094 24.5417 344.719 23.25C343.344 21.9375 341.49 21.2812 339.156 21.2812H331.125ZM331.125 42.5V59H321.688V13.9062H340.156C345.302 13.9062 349.302 15.1875 352.156 17.75C355.031 20.2917 356.469 23.8021 356.469 28.2812C356.469 31.2188 355.74 33.8438 354.281 36.1562C352.844 38.4479 350.844 40.0938 348.281 41.0938L357.781 59H347.094L338.688 42.5H331.125ZM389.094 55.0938C386.115 58.1771 382.073 59.7188 376.969 59.7188C371.865 59.7188 367.823 58.1667 364.844 55.0625C361.865 51.9583 360.375 47.6771 360.375 42.2188C360.375 36.8229 361.875 32.5729 364.875 29.4688C367.896 26.3438 371.927 24.7812 376.969 24.7812C382.031 24.7812 386.062 26.3438 389.062 29.4688C392.062 32.5729 393.562 36.8229 393.562 42.2188C393.562 47.6979 392.073 51.9896 389.094 55.0938ZM376.969 52.75C379.219 52.75 381 51.8333 382.312 50C383.625 48.1667 384.281 45.5833 384.281 42.25C384.281 38.9583 383.625 36.3854 382.312 34.5312C381 32.6771 379.219 31.75 376.969 31.75C374.719 31.75 372.927 32.6771 371.594 34.5312C370.281 36.3854 369.625 38.9583 369.625 42.25C369.625 45.5833 370.281 48.1667 371.594 50C372.906 51.8333 374.698 52.75 376.969 52.75ZM428.719 37.9688H420.25C419.979 36.1562 419.26 34.6979 418.094 33.5938C416.948 32.4896 415.458 31.9375 413.625 31.9375C411.354 31.9375 409.562 32.8542 408.25 34.6875C406.958 36.5 406.312 39.0104 406.312 42.2188C406.312 45.4896 406.958 48.0312 408.25 49.8438C409.562 51.6562 411.365 52.5625 413.656 52.5625C415.469 52.5625 416.948 52.0521 418.094 51.0312C419.24 49.9896 419.958 48.5521 420.25 46.7188H428.75C428.521 50.6771 427.031 53.8333 424.281 56.1875C421.531 58.5417 417.958 59.7188 413.562 59.7188C408.479 59.7188 404.458 58.1667 401.5 55.0625C398.542 51.9375 397.062 47.6562 397.062 42.2188C397.062 36.8646 398.542 32.625 401.5 29.5C404.479 26.3542 408.479 24.7812 413.5 24.7812C417.958 24.7812 421.552 26.0104 424.281 28.4688C427.031 30.9271 428.51 34.0938 428.719 37.9688ZM442.625 38.9375L454 25.5H464.344L451.562 39.875L464.969 59H454.469L444.875 45.375L442.5 47.9375V59H433.375V13.9062H442.5V38.9375H442.625ZM129.263 87.3652V89H117.78V69.9761H129.263V71.6108H119.573V78.4531H128.775V80.0615H119.573V87.3652H129.263ZM142.841 89V69.9761H144.582V89H142.841ZM163.789 76.5942C162.568 76.5942 161.561 77.0205 160.77 77.873C159.988 78.7168 159.562 79.8198 159.492 81.1821H167.955C167.938 79.8198 167.547 78.7168 166.782 77.873C166.018 77.0205 165.02 76.5942 163.789 76.5942ZM167.85 85.1108H169.577C169.366 86.3149 168.742 87.3037 167.705 88.0771C166.677 88.8418 165.415 89.2241 163.921 89.2241C161.997 89.2241 160.476 88.5957 159.36 87.3389C158.244 86.0732 157.685 84.355 157.685 82.1841C157.685 80.0483 158.244 78.3301 159.36 77.0293C160.476 75.7197 161.961 75.0649 163.816 75.0649C165.626 75.0649 167.068 75.6802 168.14 76.9106C169.212 78.1411 169.748 79.7803 169.748 81.8281V82.5664H159.478V82.6719C159.478 84.2188 159.883 85.4448 160.691 86.3501C161.5 87.2466 162.59 87.6948 163.961 87.6948C164.972 87.6948 165.824 87.4575 166.518 86.9829C167.213 86.5083 167.657 85.8843 167.85 85.1108ZM193.9 79.6265H192.186C191.993 78.7388 191.549 78.0137 190.855 77.4512C190.169 76.8887 189.308 76.6074 188.271 76.6074C186.926 76.6074 185.849 77.1084 185.041 78.1104C184.241 79.1123 183.841 80.457 183.841 82.1445C183.841 83.8496 184.245 85.1987 185.054 86.1919C185.863 87.1851 186.939 87.6816 188.284 87.6816C189.304 87.6816 190.156 87.418 190.842 86.8906C191.536 86.3633 191.984 85.6514 192.186 84.7549H193.913C193.72 86.0732 193.105 87.1499 192.068 87.9849C191.039 88.811 189.774 89.2241 188.271 89.2241C186.39 89.2241 184.883 88.5913 183.749 87.3257C182.624 86.0513 182.061 84.3242 182.061 82.1445C182.061 79.9912 182.624 78.2729 183.749 76.9897C184.883 75.7065 186.386 75.0649 188.258 75.0649C189.813 75.0649 191.097 75.5044 192.107 76.3833C193.127 77.2622 193.724 78.3433 193.9 79.6265ZM207.505 71.8613H209.245V75.2891H211.948V76.7393H209.245V85.5459C209.245 86.249 209.39 86.7632 209.681 87.0884C209.971 87.4048 210.432 87.563 211.065 87.563C211.557 87.563 211.873 87.5454 212.014 87.5103V89C211.768 89.0527 211.337 89.0791 210.722 89.0791C209.571 89.0791 208.744 88.8154 208.243 88.2881C207.751 87.752 207.505 86.8643 207.505 85.625V76.7393H205.462V75.2891H207.505V71.8613ZM225.092 89V75.2891H226.74V77.728H226.779C227.034 76.8931 227.465 76.2427 228.071 75.7769C228.678 75.3022 229.403 75.0649 230.246 75.0649C230.58 75.0649 230.941 75.1133 231.327 75.21V76.9238C231.046 76.792 230.611 76.7261 230.022 76.7261C229.055 76.7261 228.282 77.0688 227.702 77.7544C227.122 78.4399 226.832 79.3408 226.832 80.457V89H225.092ZM243.996 89V75.2891H245.737V89H243.996ZM244.866 72.5205C244.55 72.5205 244.278 72.4106 244.049 72.1909C243.821 71.9624 243.706 71.6855 243.706 71.3604C243.706 71.0439 243.821 70.7759 244.049 70.5562C244.278 70.3276 244.55 70.2134 244.866 70.2134C245.192 70.2134 245.469 70.3276 245.697 70.5562C245.926 70.7759 246.04 71.0439 246.04 71.3604C246.04 71.6855 245.926 71.9624 245.697 72.1909C245.469 72.4106 245.192 72.5205 244.866 72.5205ZM270.679 79.6265H268.966C268.772 78.7388 268.328 78.0137 267.634 77.4512C266.948 76.8887 266.087 76.6074 265.05 76.6074C263.705 76.6074 262.629 77.1084 261.82 78.1104C261.02 79.1123 260.62 80.457 260.62 82.1445C260.62 83.8496 261.025 85.1987 261.833 86.1919C262.642 87.1851 263.718 87.6816 265.063 87.6816C266.083 87.6816 266.935 87.418 267.621 86.8906C268.315 86.3633 268.763 85.6514 268.966 84.7549H270.693C270.499 86.0732 269.884 87.1499 268.847 87.9849C267.819 88.811 266.553 89.2241 265.05 89.2241C263.169 89.2241 261.662 88.5913 260.528 87.3257C259.403 86.0513 258.841 84.3242 258.841 82.1445C258.841 79.9912 259.403 78.2729 260.528 76.9897C261.662 75.7065 263.165 75.0649 265.037 75.0649C266.592 75.0649 267.876 75.5044 268.886 76.3833C269.906 77.2622 270.504 78.3433 270.679 79.6265ZM299.089 83.832H300.895C300.992 84.9746 301.532 85.9019 302.517 86.6138C303.501 87.3169 304.736 87.6685 306.221 87.6685C307.645 87.6685 308.814 87.3213 309.728 86.627C310.651 85.9326 311.112 85.0493 311.112 83.9771C311.112 83.0894 310.792 82.3687 310.15 81.8149C309.508 81.2524 308.48 80.791 307.065 80.4307L304.705 79.8242C302.939 79.376 301.647 78.7607 300.829 77.9785C300.021 77.1963 299.616 76.1812 299.616 74.9331C299.616 73.4038 300.232 72.147 301.462 71.1626C302.693 70.1694 304.248 69.6729 306.129 69.6729C307.975 69.6729 309.508 70.165 310.73 71.1494C311.961 72.125 312.602 73.3687 312.655 74.8804H310.849C310.761 73.8081 310.282 72.9468 309.412 72.2964C308.542 71.6372 307.43 71.3076 306.076 71.3076C304.749 71.3076 303.651 71.6416 302.78 72.3096C301.919 72.9688 301.488 73.8213 301.488 74.8672C301.488 75.6846 301.8 76.3525 302.424 76.8711C303.048 77.3809 304.064 77.8159 305.47 78.1763L307.527 78.7036C309.443 79.187 310.827 79.8242 311.679 80.6152C312.532 81.4062 312.958 82.4609 312.958 83.7793C312.958 85.4492 312.334 86.7896 311.086 87.8003C309.838 88.8022 308.164 89.3032 306.063 89.3032C304.077 89.3032 302.442 88.8022 301.159 87.8003C299.876 86.7896 299.186 85.4668 299.089 83.832ZM331.401 76.5942C330.18 76.5942 329.173 77.0205 328.382 77.873C327.6 78.7168 327.174 79.8198 327.104 81.1821H335.567C335.55 79.8198 335.159 78.7168 334.394 77.873C333.629 77.0205 332.632 76.5942 331.401 76.5942ZM335.462 85.1108H337.189C336.978 86.3149 336.354 87.3037 335.317 88.0771C334.289 88.8418 333.027 89.2241 331.533 89.2241C329.608 89.2241 328.088 88.5957 326.972 87.3389C325.856 86.0732 325.297 84.355 325.297 82.1841C325.297 80.0483 325.856 78.3301 326.972 77.0293C328.088 75.7197 329.573 75.0649 331.428 75.0649C333.238 75.0649 334.68 75.6802 335.752 76.9106C336.824 78.1411 337.36 79.7803 337.36 81.8281V82.5664H327.09V82.6719C327.09 84.2188 327.495 85.4448 328.303 86.3501C329.112 87.2466 330.202 87.6948 331.573 87.6948C332.584 87.6948 333.436 87.4575 334.13 86.9829C334.825 86.5083 335.269 85.8843 335.462 85.1108ZM350.359 89V75.2891H352.007V77.728H352.046C352.301 76.8931 352.732 76.2427 353.338 75.7769C353.945 75.3022 354.67 75.0649 355.514 75.0649C355.848 75.0649 356.208 75.1133 356.595 75.21V76.9238C356.314 76.792 355.878 76.7261 355.29 76.7261C354.323 76.7261 353.549 77.0688 352.969 77.7544C352.389 78.4399 352.099 79.3408 352.099 80.457V89H350.359ZM379.903 75.2891L374.814 89H372.955L367.853 75.2891H369.699L373.865 87.1675H373.904L378.084 75.2891H379.903ZM392.4 89V75.2891H394.141V89H392.4ZM393.27 72.5205C392.954 72.5205 392.682 72.4106 392.453 72.1909C392.225 71.9624 392.11 71.6855 392.11 71.3604C392.11 71.0439 392.225 70.7759 392.453 70.5562C392.682 70.3276 392.954 70.2134 393.27 70.2134C393.596 70.2134 393.873 70.3276 394.101 70.5562C394.33 70.7759 394.444 71.0439 394.444 71.3604C394.444 71.6855 394.33 71.9624 394.101 72.1909C393.873 72.4106 393.596 72.5205 393.27 72.5205ZM419.083 79.6265H417.37C417.176 78.7388 416.732 78.0137 416.038 77.4512C415.352 76.8887 414.491 76.6074 413.454 76.6074C412.109 76.6074 411.033 77.1084 410.224 78.1104C409.424 79.1123 409.024 80.457 409.024 82.1445C409.024 83.8496 409.429 85.1987 410.237 86.1919C411.046 87.1851 412.122 87.6816 413.467 87.6816C414.487 87.6816 415.339 87.418 416.025 86.8906C416.719 86.3633 417.167 85.6514 417.37 84.7549H419.097C418.903 86.0732 418.288 87.1499 417.251 87.9849C416.223 88.811 414.957 89.2241 413.454 89.2241C411.573 89.2241 410.066 88.5913 408.932 87.3257C407.807 86.0513 407.245 84.3242 407.245 82.1445C407.245 79.9912 407.807 78.2729 408.932 76.9897C410.066 75.7065 411.569 75.0649 413.441 75.0649C414.997 75.0649 416.28 75.5044 417.29 76.3833C418.31 77.2622 418.908 78.3433 419.083 79.6265ZM437.355 76.5942C436.134 76.5942 435.127 77.0205 434.336 77.873C433.554 78.7168 433.128 79.8198 433.058 81.1821H441.521C441.504 79.8198 441.113 78.7168 440.348 77.873C439.583 77.0205 438.586 76.5942 437.355 76.5942ZM441.416 85.1108H443.143C442.932 86.3149 442.308 87.3037 441.271 88.0771C440.243 88.8418 438.981 89.2241 437.487 89.2241C435.562 89.2241 434.042 88.5957 432.926 87.3389C431.809 86.0732 431.251 84.355 431.251 82.1841C431.251 80.0483 431.809 78.3301 432.926 77.0293C434.042 75.7197 435.527 75.0649 437.382 75.0649C439.192 75.0649 440.634 75.6802 441.706 76.9106C442.778 78.1411 443.314 79.7803 443.314 81.8281V82.5664H433.044V82.6719C433.044 84.2188 433.449 85.4448 434.257 86.3501C435.066 87.2466 436.156 87.6948 437.527 87.6948C438.538 87.6948 439.39 87.4575 440.084 86.9829C440.779 86.5083 441.223 85.8843 441.416 85.1108ZM456.036 78.9541C456.036 77.8203 456.493 76.8887 457.407 76.1592C458.33 75.4297 459.516 75.0649 460.967 75.0649C462.364 75.0649 463.52 75.4429 464.434 76.1987C465.357 76.9458 465.862 77.9214 465.95 79.1255H464.276C464.17 78.3081 463.819 77.6665 463.221 77.2007C462.632 76.7349 461.863 76.502 460.914 76.502C459.982 76.502 459.222 76.7261 458.633 77.1743C458.053 77.6138 457.763 78.1763 457.763 78.8618C457.763 79.4243 457.974 79.8857 458.396 80.2461C458.818 80.5977 459.486 80.8877 460.4 81.1162L462.43 81.604C463.801 81.9468 464.772 82.395 465.344 82.9487C465.915 83.5024 466.201 84.2715 466.201 85.2559C466.201 86.416 465.708 87.3696 464.724 88.1167C463.74 88.855 462.474 89.2241 460.927 89.2241C459.459 89.2241 458.238 88.8506 457.262 88.1035C456.295 87.3564 455.755 86.3765 455.641 85.1636H457.381C457.504 85.981 457.886 86.6226 458.528 87.0884C459.178 87.5542 460.013 87.7871 461.033 87.7871C462.061 87.7871 462.887 87.5674 463.511 87.1279C464.135 86.6885 464.447 86.1084 464.447 85.3877C464.447 84.79 464.254 84.3198 463.867 83.9771C463.489 83.6255 462.843 83.3398 461.929 83.1201L459.701 82.5664C458.462 82.2588 457.539 81.8105 456.932 81.2217C456.335 80.624 456.036 79.8682 456.036 78.9541Z" fill="#4F4F4F"/>
<g clip-path="url(#clip0_4_127)">
<path d="M39.345 41.0249C39.3604 41.0374 39.373 41.0531 39.3819 41.0709C39.3908 41.0887 39.3958 41.1082 39.3966 41.128L40.0365 47.8978C40.1296 48.9332 40.6079 49.8961 41.377 50.596C42.1461 51.2959 43.1499 51.6819 44.1901 51.6778H51.8159C52.856 51.6819 53.8599 51.2959 54.629 50.596C55.398 49.8961 55.8764 48.9332 55.9694 47.8978L56.6094 41.126C56.6112 41.1056 56.617 41.0858 56.6266 41.0677C56.6362 41.0496 56.6493 41.0337 56.6651 41.0208C58.8147 39.2401 60.3622 36.8401 61.0968 34.148C61.8313 31.4559 61.717 28.6029 60.7694 25.9781C59.8219 23.3533 58.0873 21.0846 55.8022 19.4815C53.517 17.8784 50.7928 17.0189 48.0009 17.0203H47.9514C45.1635 17.0297 42.4462 17.8974 40.1692 19.5051C37.8922 21.1129 36.166 23.3828 35.2256 26.0059C34.2851 28.629 34.176 31.4781 34.913 34.1654C35.6501 36.8527 37.1976 39.2478 39.345 41.0249ZM37.3652 30.2234C37.551 24.5761 42.3053 19.9646 47.9638 19.946H48.0009C50.1904 19.9465 52.3264 20.6218 54.1179 21.8799C55.9093 23.138 57.269 24.9176 58.0117 26.9762C58.7543 29.0348 58.8436 31.2722 58.2676 33.3834C57.6916 35.4947 56.4781 37.377 54.7927 38.7738C54.4806 39.0305 54.2225 39.3465 54.0333 39.7035C53.8441 40.0604 53.7275 40.4514 53.6904 40.8536L53.0545 47.6254C53.0266 47.9341 52.8839 48.2211 52.6546 48.4296C52.4252 48.6382 52.126 48.7533 51.8159 48.752H44.1901C43.8797 48.7532 43.5801 48.6379 43.3507 48.4289C43.1214 48.2199 42.9789 47.9324 42.9514 47.6234L42.3197 40.8536C42.2828 40.4515 42.1666 40.0607 41.9777 39.7037C41.7889 39.3467 41.5311 39.0307 41.2194 38.7738C39.9629 37.7403 38.9616 36.4314 38.2932 34.9485C37.6248 33.4657 37.3072 31.8488 37.3652 30.2234Z" fill="#4F4F4F"/>
<path d="M39.5187 29.8088C39.5663 29.8186 39.6147 29.8234 39.6632 29.8232C39.8322 29.8227 39.9957 29.7639 40.1262 29.6568C40.2568 29.5496 40.3463 29.4007 40.3796 29.2352C40.7925 27.2028 42.0125 24.5452 45.5612 23.4228C45.6574 23.3977 45.7474 23.3533 45.8259 23.2923C45.9044 23.2314 45.9697 23.1551 46.0177 23.0681C46.0658 22.9811 46.0956 22.8853 46.1054 22.7864C46.1152 22.6875 46.1048 22.5877 46.0748 22.493C46.0448 22.3983 45.9959 22.3106 45.9309 22.2354C45.8659 22.1602 45.7864 22.099 45.697 22.0555C45.6076 22.012 45.5103 21.9871 45.411 21.9824C45.3117 21.9777 45.2125 21.9932 45.1194 22.028C41.8164 23.072 39.6281 25.5356 38.9448 28.9484C38.9259 29.0425 38.9257 29.1395 38.9443 29.2337C38.9629 29.328 38.9999 29.4176 39.0532 29.4975C39.1065 29.5775 39.1751 29.6461 39.255 29.6995C39.3348 29.7529 39.4245 29.79 39.5187 29.8088Z" fill="#4F4F4F"/>
<path d="M95.9938 42.7994L70.3191 0H25.6809L19.8181 9.77392V6.5242H9.40946V27.1182L0 42.7994H8.23689L13.3215 83.7252H42.708C43.0864 83.711 43.4445 83.5508 43.7072 83.2782C43.9699 83.0056 44.1166 82.6418 44.1166 82.2634C44.1166 81.8849 43.9699 81.5211 43.7072 81.2485C43.4445 80.9759 43.0864 80.8157 42.708 80.8015H15.9061L11.1848 42.7994H35.3526C35.5493 42.8067 35.7454 42.7744 35.9293 42.7043C36.1132 42.6341 36.2811 42.5276 36.4229 42.3912C36.5646 42.2547 36.6774 42.091 36.7544 41.91C36.8315 41.7289 36.8712 41.5342 36.8712 41.3375C36.8712 41.1408 36.8315 40.946 36.7544 40.765C36.6774 40.584 36.5646 40.4203 36.4229 40.2838C36.2811 40.1474 36.1132 40.0409 35.9293 39.9707C35.7454 39.9006 35.5493 39.8682 35.3526 39.8756H5.16096L27.3386 2.92372H68.6614L90.8329 39.8756H60.6454C60.267 39.8898 59.9088 40.0501 59.6461 40.3227C59.3834 40.5953 59.2367 40.959 59.2367 41.3375C59.2367 41.716 59.3834 42.0797 59.6461 42.3523C59.9088 42.6249 60.267 42.7851 60.6454 42.7994H68.8286V47.0642C68.6236 47.1893 68.4542 47.365 68.3367 47.5744C68.2191 47.7838 68.1574 48.0198 68.1574 48.2599C68.1574 48.5 68.2191 48.736 68.3367 48.9454C68.4542 49.1548 68.6236 49.3305 68.8286 49.4556V52.5898C68.6236 52.7149 68.4542 52.8906 68.3367 53.1C68.2191 53.3093 68.1574 53.5454 68.1574 53.7855C68.1574 54.0256 68.2191 54.2616 68.3367 54.471C68.4542 54.6804 68.6236 54.856 68.8286 54.9812V58.1174C68.5668 58.2769 68.3644 58.5176 68.2522 58.8028C68.1399 59.0879 68.124 59.402 68.2069 59.697C68.2898 59.992 68.4669 60.2519 68.7113 60.437C68.9556 60.6221 69.2538 60.7222 69.5604 60.7222C69.867 60.7222 70.1652 60.6221 70.4096 60.437C70.6539 60.2519 70.831 59.992 70.9139 59.697C70.9968 59.402 70.9809 59.0879 70.8687 58.8028C70.7565 58.5176 70.554 58.2769 70.2922 58.1174V54.9812C70.4977 54.8564 70.6676 54.6809 70.7855 54.4715C70.9034 54.262 70.9653 54.0258 70.9653 53.7855C70.9653 53.5452 70.9034 53.3089 70.7855 53.0995C70.6676 52.8901 70.4977 52.7145 70.2922 52.5898V49.4556C70.4977 49.3309 70.6676 49.1553 70.7855 48.9459C70.9034 48.7365 70.9653 48.5002 70.9653 48.2599C70.9653 48.0196 70.9034 47.7834 70.7855 47.5739C70.6676 47.3645 70.4977 47.189 70.2922 47.0642V42.7994H84.8131L80.0981 80.8015H53.292C53.0953 80.7941 52.8992 80.8264 52.7153 80.8966C52.5314 80.9667 52.3635 81.0732 52.2217 81.2097C52.08 81.3462 51.9672 81.5098 51.8902 81.6909C51.8131 81.8719 51.7734 82.0666 51.7734 82.2634C51.7734 82.4601 51.8131 82.6548 51.8902 82.8358C51.9672 83.0169 52.08 83.1805 52.2217 83.317C52.3635 83.4535 52.5314 83.56 52.7153 83.6301C52.8992 83.7003 53.0953 83.7326 53.292 83.7252H82.6785L87.761 42.7994H95.9938ZM12.3347 9.44792H16.8908V14.6495L12.3347 22.2405V9.44792Z" fill="#4F4F4F"/>
<path d="M46.5373 64.7345V88.4626C46.5299 88.6592 46.5623 88.8553 46.6325 89.0391C46.7026 89.2229 46.8092 89.3907 46.9457 89.5324C47.0823 89.6741 47.246 89.7868 47.4271 89.8638C47.6083 89.9408 47.8031 89.9804 47.9999 89.9804C48.1968 89.9804 48.3916 89.9408 48.5727 89.8638C48.7539 89.7868 48.9176 89.6741 49.0541 89.5324C49.1907 89.3907 49.2972 89.2229 49.3674 89.0391C49.4376 88.8553 49.4699 88.6592 49.4626 88.4626V64.7345C49.4699 64.5379 49.4376 64.3418 49.3674 64.158C49.2972 63.9742 49.1907 63.8065 49.0541 63.6648C48.9176 63.5231 48.7539 63.4103 48.5727 63.3333C48.3916 63.2564 48.1968 63.2167 47.9999 63.2167C47.8031 63.2167 47.6083 63.2564 47.4271 63.3333C47.246 63.4103 47.0823 63.5231 46.9457 63.6648C46.8092 63.8065 46.7026 63.9742 46.6325 64.158C46.5623 64.3418 46.5299 64.5379 46.5373 64.7345Z" fill="#4F4F4F"/>
<path d="M42.6194 56.5162H53.3811C53.7595 56.502 54.1176 56.3418 54.3803 56.0692C54.643 55.7966 54.7898 55.4329 54.7898 55.0544C54.7898 54.6759 54.643 54.3122 54.3803 54.0396C54.1176 53.767 53.7595 53.6067 53.3811 53.5925H42.6194C42.241 53.6067 41.8829 53.767 41.6202 54.0396C41.3575 54.3122 41.2108 54.6759 41.2108 55.0544C41.2108 55.4329 41.3575 55.7966 41.6202 56.0692C41.8829 56.3418 42.241 56.502 42.6194 56.5162Z" fill="#4F4F4F"/>
<path d="M44.5018 61.3568H51.496C51.6927 61.3641 51.8888 61.3318 52.0727 61.2617C52.2566 61.1915 52.4245 61.085 52.5663 60.9486C52.708 60.8121 52.8208 60.6484 52.8978 60.4674C52.9749 60.2863 53.0146 60.0916 53.0146 59.8949C53.0146 59.6982 52.9749 59.5034 52.8978 59.3224C52.8208 59.1414 52.708 58.9777 52.5663 58.8412C52.4245 58.7048 52.2566 58.5983 52.0727 58.5281C51.8888 58.458 51.6927 58.4257 51.496 58.433H44.5018C44.1136 58.433 43.7414 58.5872 43.4669 58.8615C43.1924 59.1359 43.0382 59.5079 43.0382 59.8959C43.0382 60.2839 43.1924 60.656 43.4669 60.9303C43.7414 61.2047 44.1136 61.3588 44.5018 61.3588V61.3568Z" fill="#4F4F4F"/>
<path d="M63.4634 33.599C63.3901 33.9796 63.4709 34.3736 63.688 34.6947C63.9051 35.0158 64.2409 35.2376 64.6215 35.3115L68.8473 36.1369C69.2268 36.2069 69.6186 36.1244 69.9375 35.9071C70.2564 35.6899 70.4765 35.3555 70.55 34.9769C70.6235 34.5982 70.5444 34.2059 70.3299 33.8852C70.1154 33.5646 69.7828 33.3416 69.4047 33.2647L65.1789 32.4394C64.7976 32.3662 64.4028 32.4471 64.0811 32.6645C63.7595 32.882 63.5373 33.218 63.4634 33.599Z" fill="#4F4F4F"/>
<path d="M67.3937 21.1408L63.4053 22.7585C63.0829 22.8804 62.814 23.1124 62.6461 23.4133C62.4782 23.7143 62.4221 24.0649 62.4879 24.4032C62.5536 24.7414 62.7368 25.0456 63.0052 25.2619C63.2735 25.4782 63.6098 25.5927 63.9544 25.5852C64.1428 25.586 64.3294 25.5495 64.5036 25.4779L68.494 23.8623C68.8521 23.7153 69.1373 23.4326 69.2872 23.0759C69.4372 22.7193 69.4397 22.3178 69.2942 21.9593C69.1487 21.6008 68.8671 21.3145 68.5109 21.163C68.1547 21.0116 67.753 21.0073 67.3937 21.1511V21.1408Z" fill="#4F4F4F"/>
<path d="M57.4684 17.6764C57.7109 17.6772 57.9497 17.6176 58.1634 17.503C58.3771 17.3885 58.559 17.2226 58.6925 17.0203L61.0624 13.4301C61.2536 13.1077 61.3134 12.7243 61.2296 12.359C61.1457 11.9937 60.9247 11.6747 60.6121 11.4677C60.2996 11.2608 59.9194 11.1818 59.5502 11.2471C59.181 11.3124 58.851 11.5171 58.6285 11.8187L56.2566 15.4089C56.1504 15.5689 56.0768 15.7484 56.0401 15.9369C56.0034 16.1254 56.0043 16.3193 56.0426 16.5075C56.081 16.6957 56.1561 16.8745 56.2636 17.0337C56.3712 17.1928 56.5091 17.3292 56.6694 17.435C56.9062 17.5923 57.1841 17.6763 57.4684 17.6764Z" fill="#4F4F4F"/>
<path d="M49.4626 13.3827V9.07861C49.4699 8.88202 49.4376 8.68595 49.3674 8.50215C49.2972 8.31834 49.1907 8.15057 49.0541 8.00887C48.9176 7.86717 48.7539 7.75445 48.5727 7.67746C48.3916 7.60047 48.1968 7.56079 47.9999 7.56079C47.8031 7.56079 47.6083 7.60047 47.4271 7.67746C47.246 7.75445 47.0823 7.86717 46.9457 8.00887C46.8092 8.15057 46.7026 8.31834 46.6325 8.50215C46.5623 8.68595 46.5299 8.88202 46.5373 9.07861V13.3827C46.5515 13.7609 46.7119 14.1189 46.9846 14.3814C47.2573 14.644 47.6213 14.7906 47.9999 14.7906C48.3786 14.7906 48.7425 14.644 49.0153 14.3814C49.288 14.1189 49.4483 13.7609 49.4626 13.3827Z" fill="#4F4F4F"/>
<path d="M38.5297 17.6785C38.7938 17.6776 39.0527 17.6055 39.2791 17.4696C39.5056 17.3338 39.6911 17.1394 39.8161 16.9069C39.9411 16.6744 40.0009 16.4124 39.9892 16.1487C39.9775 15.885 39.8948 15.6294 39.7497 15.4088L37.3777 11.8207C37.1576 11.5128 36.8266 11.3021 36.4543 11.233C36.082 11.1639 35.6974 11.2416 35.3812 11.45C35.0651 11.6583 34.8421 11.981 34.759 12.3502C34.6759 12.7195 34.7392 13.1065 34.9356 13.4301L37.3076 17.0203C37.4406 17.2228 37.6219 17.389 37.8353 17.5039C38.0487 17.6188 38.2873 17.6788 38.5297 17.6785Z" fill="#4F4F4F"/>
<path d="M33.3996 24.6628C33.472 24.485 33.5086 24.2946 33.5073 24.1026C33.5061 23.9105 33.4669 23.7207 33.3921 23.5438C33.3173 23.3669 33.2084 23.2065 33.0715 23.0717C32.9347 22.937 32.7726 22.8305 32.5945 22.7584L28.6061 21.1408C28.2468 20.9969 27.8451 21.0012 27.4889 21.1527C27.1328 21.3041 26.8511 21.5904 26.7056 21.9489C26.5601 22.3074 26.5626 22.7089 26.7126 23.0655C26.8626 23.4222 27.1478 23.705 27.5058 23.852L31.4942 25.4675C31.6685 25.5387 31.855 25.5752 32.0433 25.5748C32.3346 25.5752 32.6193 25.4886 32.861 25.3261C33.1026 25.1636 33.2902 24.9326 33.3996 24.6628Z" fill="#4F4F4F"/>
<path d="M30.8212 32.4415L26.5954 33.2668C26.2383 33.3361 25.9199 33.5358 25.7021 33.827C25.4843 34.1181 25.3828 34.4799 25.4173 34.8418C25.4519 35.2037 25.62 35.5398 25.8889 35.7845C26.1578 36.0293 26.5083 36.1652 26.872 36.1658C26.9656 36.1661 27.0589 36.1571 27.1507 36.139L31.3765 35.3137C31.7573 35.2401 32.0932 35.0183 32.3104 34.6971C32.5276 34.3759 32.6083 33.9817 32.5346 33.6011C32.461 33.2205 32.2391 32.8847 31.9177 32.6677C31.5964 32.4506 31.202 32.37 30.8212 32.4436V32.4415Z" fill="#4F4F4F"/>
<path d="M52.3878 86.2589C52.0953 86.5137 51.9159 86.8742 51.8892 87.2611C51.8625 87.648 51.9906 88.0297 52.2454 88.3222L61.6073 99.0742H34.3926L43.7649 88.3222C43.8909 88.1774 43.9872 88.0092 44.0482 87.8272C44.1092 87.6451 44.1338 87.4529 44.1205 87.2614C44.1071 87.0699 44.0562 86.8829 43.9706 86.7111C43.8849 86.5392 43.7663 86.386 43.6214 86.26C43.4765 86.134 43.3082 86.0377 43.1261 85.9767C42.944 85.9158 42.7516 85.8912 42.56 85.9045C42.3684 85.9179 42.1813 85.9688 42.0094 86.0544C41.8375 86.1399 41.6841 86.2585 41.558 86.4034L27.9785 102H68.0296L54.4522 86.4034C54.3262 86.2582 54.1729 86.1393 54.0009 86.0534C53.829 85.9676 53.6417 85.9165 53.45 85.9031C53.2582 85.8897 53.0657 85.9142 52.8834 85.9753C52.7012 86.0363 52.5327 86.1327 52.3878 86.2589Z" fill="#4F4F4F"/>
<path d="M71.0147 67.7345V63.3706C71.0221 63.174 70.9898 62.9779 70.9196 62.7941C70.8494 62.6103 70.7429 62.4426 70.6063 62.3009C70.4698 62.1592 70.306 62.0464 70.1249 61.9695C69.9438 61.8925 69.749 61.8528 69.5521 61.8528C69.3553 61.8528 69.1605 61.8925 68.9793 61.9695C68.7982 62.0464 68.6345 62.1592 68.4979 62.3009C68.3614 62.4426 68.2548 62.6103 68.1846 62.7941C68.1145 62.9779 68.0821 63.174 68.0895 63.3706V67.7345C68.0821 67.9311 68.1145 68.1272 68.1846 68.311C68.2548 68.4948 68.3614 68.6626 68.4979 68.8043C68.6345 68.946 68.7982 69.0587 68.9793 69.1357C69.1605 69.2127 69.3553 69.2523 69.5521 69.2523C69.749 69.2523 69.9438 69.2127 70.1249 69.1357C70.306 69.0587 70.4698 68.946 70.6063 68.8043C70.7429 68.6626 70.8494 68.4948 70.9196 68.311C70.9898 68.1272 71.0221 67.9311 71.0147 67.7345Z" fill="#4F4F4F"/>
<path d="M39.5186 30.9374C39.325 30.9379 39.1394 31.015 39.0025 31.1519C38.8655 31.2888 38.7884 31.4742 38.7878 31.6678V31.6905C38.7978 31.8778 38.8792 32.0541 39.0154 32.1831C39.1515 32.3122 39.332 32.3841 39.5196 32.3841C39.7073 32.3841 39.8878 32.3122 40.0239 32.1831C40.1601 32.0541 40.2415 31.8778 40.2515 31.6905V31.6678C40.2509 31.4739 40.1735 31.2881 40.0361 31.1512C39.8987 31.0143 39.7126 30.9374 39.5186 30.9374Z" fill="#4F4F4F"/>
</g>
<defs>
<clipPath id="clip0_4_127">
<rect width="96" height="102" fill="white"/>
</clipPath>
</defs>
</svg>
